<mxfile host="app.diagrams.net" modified="2021-06-09T14:58:53.347Z" agent="5.0 (Windows NT 10.0; Win64; x64) AppleWebKit/537.36 (KHTML, like Gecko) Chrome/91.0.4472.77 Safari/537.36" etag="HrmudTztgu4kqTqhEBWe" version="14.7.6" type="github">
  <diagram id="RXYkN-rc8baUHDYk9CUq" name="Page-1">
    <mxGraphModel dx="1865" dy="547" grid="1" gridSize="10" guides="1" tooltips="1" connect="1" arrows="1" fold="1" page="1" pageScale="1" pageWidth="827" pageHeight="1169" math="0" shadow="0">
      <root>
        <mxCell id="0" />
        <mxCell id="1" parent="0" />
        <mxCell id="gYAfDqVK3JMRg6PWaIYk-9" value="" style="edgeStyle=orthogonalEdgeStyle;rounded=0;orthogonalLoop=1;jettySize=auto;html=1;" edge="1" parent="1" source="gYAfDqVK3JMRg6PWaIYk-7" target="gYAfDqVK3JMRg6PWaIYk-8">
          <mxGeometry relative="1" as="geometry">
            <Array as="points">
              <mxPoint x="100" y="80" />
              <mxPoint x="110" y="80" />
            </Array>
          </mxGeometry>
        </mxCell>
        <mxCell id="gYAfDqVK3JMRg6PWaIYk-7" value="" style="shape=ellipse;html=1;fillColor=#000000;strokeWidth=2;verticalLabelPosition=bottom;verticalAlignment=top;perimeter=ellipsePerimeter;" vertex="1" parent="1">
          <mxGeometry x="80" y="10" width="40" height="40" as="geometry" />
        </mxCell>
        <mxCell id="gYAfDqVK3JMRg6PWaIYk-11" value="" style="edgeStyle=orthogonalEdgeStyle;rounded=0;orthogonalLoop=1;jettySize=auto;html=1;" edge="1" parent="1" source="gYAfDqVK3JMRg6PWaIYk-8" target="gYAfDqVK3JMRg6PWaIYk-10">
          <mxGeometry relative="1" as="geometry" />
        </mxCell>
        <mxCell id="gYAfDqVK3JMRg6PWaIYk-8" value="View Order" style="points=[[0.25,0,0],[0.5,0,0],[0.75,0,0],[1,0.25,0],[1,0.5,0],[1,0.75,0],[0.75,1,0],[0.5,1,0],[0.25,1,0],[0,0.75,0],[0,0.5,0],[0,0.25,0]];shape=mxgraph.bpmn.task;whiteSpace=wrap;rectStyle=rounded;size=10;bpmnShapeType=call;" vertex="1" parent="1">
          <mxGeometry x="40" y="110" width="120" height="50" as="geometry" />
        </mxCell>
        <mxCell id="gYAfDqVK3JMRg6PWaIYk-10" value="Check Product Available" style="points=[[0.25,0,0],[0.5,0,0],[0.75,0,0],[1,0.25,0],[1,0.5,0],[1,0.75,0],[0.75,1,0],[0.5,1,0],[0.25,1,0],[0,0.75,0],[0,0.5,0],[0,0.25,0]];shape=mxgraph.bpmn.task;whiteSpace=wrap;rectStyle=rounded;size=10;bpmnShapeType=call;" vertex="1" parent="1">
          <mxGeometry x="40" y="200" width="120" height="70" as="geometry" />
        </mxCell>
        <mxCell id="gYAfDqVK3JMRg6PWaIYk-12" value="" style="shape=rhombus;html=1;verticalLabelPosition=bottom;verticalAlignment=top;" vertex="1" parent="1">
          <mxGeometry x="80" y="310" width="40" height="40" as="geometry" />
        </mxCell>
        <mxCell id="gYAfDqVK3JMRg6PWaIYk-13" value="" style="edgeStyle=elbowEdgeStyle;html=1;elbow=horizontal;align=right;verticalAlign=bottom;endArrow=none;rounded=0;labelBackgroundColor=none;startArrow=open;startSize=12;" edge="1" parent="1">
          <mxGeometry relative="1" as="geometry">
            <mxPoint x="100" y="270" as="targetPoint" />
            <mxPoint x="100" y="310" as="sourcePoint" />
            <Array as="points">
              <mxPoint x="100" y="300" />
              <mxPoint x="90" y="300" />
              <mxPoint x="110" y="300" />
            </Array>
          </mxGeometry>
        </mxCell>
        <mxCell id="gYAfDqVK3JMRg6PWaIYk-14" value="Product available" style="edgeStyle=elbowEdgeStyle;html=1;elbow=vertical;verticalAlign=bottom;endArrow=open;rounded=0;labelBackgroundColor=none;endSize=12;" edge="1" source="gYAfDqVK3JMRg6PWaIYk-12" parent="1" target="gYAfDqVK3JMRg6PWaIYk-17">
          <mxGeometry relative="1" as="geometry">
            <mxPoint x="100" y="490" as="targetPoint" />
            <Array as="points">
              <mxPoint x="100" y="490" />
            </Array>
          </mxGeometry>
        </mxCell>
        <mxCell id="gYAfDqVK3JMRg6PWaIYk-15" value="Product not available" style="edgeStyle=elbowEdgeStyle;html=1;elbow=vertical;verticalAlign=bottom;endArrow=open;rounded=0;labelBackgroundColor=none;endSize=12;entryX=1;entryY=0.5;entryDx=0;entryDy=0;entryPerimeter=0;" edge="1" source="gYAfDqVK3JMRg6PWaIYk-12" parent="1" target="gYAfDqVK3JMRg6PWaIYk-16">
          <mxGeometry relative="1" as="geometry">
            <mxPoint x="-10" y="330" as="targetPoint" />
          </mxGeometry>
        </mxCell>
        <mxCell id="gYAfDqVK3JMRg6PWaIYk-16" value="Manufacture Product" style="points=[[0.25,0,0],[0.5,0,0],[0.75,0,0],[1,0.25,0],[1,0.5,0],[1,0.75,0],[0.75,1,0],[0.5,1,0],[0.25,1,0],[0,0.75,0],[0,0.5,0],[0,0.25,0]];shape=mxgraph.bpmn.task;whiteSpace=wrap;rectStyle=rounded;size=10;bpmnShapeType=call;" vertex="1" parent="1">
          <mxGeometry x="-200" y="300" width="120" height="60" as="geometry" />
        </mxCell>
        <mxCell id="gYAfDqVK3JMRg6PWaIYk-20" value="" style="edgeStyle=orthogonalEdgeStyle;rounded=0;orthogonalLoop=1;jettySize=auto;html=1;entryX=0;entryY=0.5;entryDx=0;entryDy=0;exitX=0.392;exitY=1.037;exitDx=0;exitDy=0;exitPerimeter=0;" edge="1" parent="1" source="gYAfDqVK3JMRg6PWaIYk-16" target="gYAfDqVK3JMRg6PWaIYk-17">
          <mxGeometry relative="1" as="geometry">
            <mxPoint x="-230" y="390" as="sourcePoint" />
            <mxPoint x="-50" y="510" as="targetPoint" />
            <Array as="points">
              <mxPoint x="-153" y="430" />
              <mxPoint y="430" />
              <mxPoint y="490" />
            </Array>
          </mxGeometry>
        </mxCell>
        <mxCell id="gYAfDqVK3JMRg6PWaIYk-22" value="" style="edgeStyle=orthogonalEdgeStyle;rounded=0;orthogonalLoop=1;jettySize=auto;html=1;" edge="1" parent="1" source="gYAfDqVK3JMRg6PWaIYk-17" target="gYAfDqVK3JMRg6PWaIYk-21">
          <mxGeometry relative="1" as="geometry" />
        </mxCell>
        <mxCell id="gYAfDqVK3JMRg6PWaIYk-17" value="" style="shape=rhombus;html=1;verticalLabelPosition=top;verticalAlignment=bottom;" vertex="1" parent="1">
          <mxGeometry x="80" y="470" width="40" height="40" as="geometry" />
        </mxCell>
        <mxCell id="gYAfDqVK3JMRg6PWaIYk-24" value="" style="edgeStyle=orthogonalEdgeStyle;rounded=0;orthogonalLoop=1;jettySize=auto;html=1;" edge="1" parent="1" source="gYAfDqVK3JMRg6PWaIYk-21" target="gYAfDqVK3JMRg6PWaIYk-23">
          <mxGeometry relative="1" as="geometry" />
        </mxCell>
        <mxCell id="gYAfDqVK3JMRg6PWaIYk-21" value="Send Stock" style="points=[[0.25,0,0],[0.5,0,0],[0.75,0,0],[1,0.25,0],[1,0.5,0],[1,0.75,0],[0.75,1,0],[0.5,1,0],[0.25,1,0],[0,0.75,0],[0,0.5,0],[0,0.25,0]];shape=mxgraph.bpmn.task;whiteSpace=wrap;rectStyle=rounded;size=10;bpmnShapeType=call;" vertex="1" parent="1">
          <mxGeometry x="40" y="560" width="120" height="50" as="geometry" />
        </mxCell>
        <mxCell id="gYAfDqVK3JMRg6PWaIYk-23" value="" style="html=1;shape=mxgraph.sysml.actFinal;strokeWidth=2;verticalLabelPosition=bottom;verticalAlignment=top;" vertex="1" parent="1">
          <mxGeometry x="80" y="670" width="40" height="40" as="geometry" />
        </mxCell>
      </root>
    </mxGraphModel>
  </diagram>
</mxfile>
